<svg xmlns="http://www.w3.org/2000/svg" viewBox="0 0 512 512">
  <defs>
    <linearGradient id="grad" x1="0%" y1="0%" x2="100%" y2="100%">
      <stop offset="0%" style="stop-color:#7c3aed"/>
      <stop offset="100%" style="stop-color:#4f46e5"/>
    </linearGradient>
  </defs>
  <rect width="512" height="512" rx="100" fill="url(#grad)"/>
  <path d="M150 180h212c11 0 20 9 20 20v20c0 11-9 20-20 20H150c-11 0-20-9-20-20v-20c0-11 9-20 20-20z" fill="white" opacity="0.9"/>
  <path d="M150 260h170c11 0 20 9 20 20v20c0 11-9 20-20 20H150c-11 0-20-9-20-20v-20c0-11 9-20 20-20z" fill="white" opacity="0.7"/>
  <path d="M150 340h130c11 0 20 9 20 20v20c0 11-9 20-20 20H150c-11 0-20-9-20-20v-20c0-11 9-20 20-20z" fill="white" opacity="0.5"/>
  <circle cx="400" cy="380" r="60" fill="#22c55e"/>
  <path d="M375 380l15 15 35-35" stroke="white" stroke-width="10" fill="none" stroke-linecap="round" stroke-linejoin="round"/>
</svg>
